<svg xmlns="http://www.w3.org/2000/svg" width="512" height="512" viewBox="0 0 512 512">
  <defs>
    <radialGradient id="g" cx="35%" cy="30%" r="80%">
      <stop offset="0" stop-color="#8fd6ff"/>
      <stop offset="0.55" stop-color="#2f6ea6"/>
      <stop offset="1" stop-color="#1c3754"/>
    </radialGradient>
    <linearGradient id="shine" x1="0" x2="1" y1="0" y2="1">
      <stop offset="0" stop-color="white" stop-opacity="0.35"/>
      <stop offset="1" stop-color="white" stop-opacity="0"/>
    </linearGradient>
  </defs>
  <circle cx="256" cy="256" r="244" fill="url(#g)"/>
  <circle cx="256" cy="256" r="236" fill="none" stroke="rgba(255,255,255,.35)" stroke-width="6"/>
  <!-- flame -->
  <path d="M256 150c22 42 2 58-12 76-22 26-12 72 12 86 24-14 34-60 12-86-14-18-34-34-12-76z"
        fill="#ffd36e" stroke="rgba(0,0,0,.18)" stroke-width="6" stroke-linejoin="round"/>
  <path d="M256 190c12 24 2 34-8 46-12 14-8 42 8 50 16-8 22-36 8-50-10-12-20-22-8-46z"
        fill="#ff8a5c" opacity="0.95"/>
  <text x="256" y="230" text-anchor="middle" font-family="system-ui,Segoe UI,Arial" font-weight="900" font-size="44" fill="white" letter-spacing="2">GYURICA</text>
  <text x="256" y="355" text-anchor="middle" font-family="system-ui,Segoe UI,Arial" font-weight="900" font-size="46" fill="white" letter-spacing="2">LÁNGOSA</text>
  <path d="M90 90h332v180c0 96-74 172-166 172S90 366 90 270V90z" fill="url(#shine)" opacity="0.25"/>
</svg>
